<svg width="69" height="61" viewBox="0 0 69 61" fill="none" xmlns="http://www.w3.org/2000/svg">
<path d="M62.5312 30.75H51.75V22.125C51.75 17.3678 55.6178 13.5 60.375 13.5H61.4531C63.2455 13.5 64.6875 12.058 64.6875 10.2656V3.79688C64.6875 2.00449 63.2455 0.5625 61.4531 0.5625H60.375C48.4617 0.5625 38.8125 10.2117 38.8125 22.125V54.4688C38.8125 58.04 41.71 60.9375 45.2812 60.9375H62.5312C66.1025 60.9375 69 58.04 69 54.4688V37.2188C69 33.6475 66.1025 30.75 62.5312 30.75ZM23.7188 30.75H12.9375V22.125C12.9375 17.3678 16.8053 13.5 21.5625 13.5H22.6406C24.433 13.5 25.875 12.058 25.875 10.2656V3.79688C25.875 2.00449 24.433 0.5625 22.6406 0.5625H21.5625C9.64922 0.5625 0 10.2117 0 22.125V54.4688C0 58.04 2.89746 60.9375 6.46875 60.9375H23.7188C27.29 60.9375 30.1875 58.04 30.1875 54.4688V37.2188C30.1875 33.6475 27.29 30.75 23.7188 30.75Z" fill="#A4C8FF"/>
</svg>
